<svg width="20" height="17" viewBox="0 0 20 17" fill="none" xmlns="http://www.w3.org/2000/svg">
<rect width="20" height="17" fill="#1E1E1E"/>
<rect width="402" height="2581" transform="translate(-126 -79)" fill="white"/>
<rect x="-126" y="-79" width="402" height="611" fill="white"/>
<mask id="path-2-inside-1_0_1" fill="white">
<path d="M-126 -15H276V32H-126V-15Z"/>
</mask>
<path d="M276 31.5H-126V32.5H276V31.5Z" fill="#DEDEDE" mask="url(#path-2-inside-1_0_1)"/>
<path d="M0 1.68285C0 0.762319 0.746235 0.0160828 1.66676 0.0160828H10.0058V11.3279H1.66676C0.746232 11.3279 0 10.5817 0 9.66116V1.68285Z" fill="#E62C33" fill-opacity="0.5"/>
<path d="M9.99418 0.0161743H18.3332C19.2538 0.0161743 20 0.762409 20 1.68294V15.3172C20 16.2377 19.2538 16.9839 18.3332 16.9839H11.6609C10.7404 16.9839 9.99418 16.2377 9.99418 15.3172V0.0161743Z" fill="#E62C33"/>
</svg>
